<svg viewBox="0 0 135 60" fill="none" xmlns="http://www.w3.org/2000/svg"><path d="M16.63 21.28s-2.15 1.3-2.63 3.42a12.1 12.1 0 0 0 0 4.44s-3.38 1.4-3.38 5.77c0 4.37 2.85 5.6 2.85 5.6s.03 5.17 3.21 7.95a10.9 10.9 0 0 0 6.53 2.8s1.73 3.68 6.84 3.68c5.11 0 6.85-3.68 6.85-3.68s3.46-.5 6.52-2.8c3.06-2.29 2.98-7.94 2.98-7.94s3.08-1.24 3.08-5.61c0-4.38-3.37-5.77-3.37-5.77s.48-2.32 0-4.44c-.48-2.13-2.63-3.42-2.63-3.42" fill="#B22EC8"/><path d="M46.2 27.86c0-8.94-7.23-11.45-16.17-11.45-8.93 0-16.17 2.52-16.17 11.45a16.17 16.17 0 0 0 32.35 0Z" fill="#B22EC8"/><path d="M30.55 54.92s4.37-3.05 4.08-10.09c1.89-1.96 2.47-4.59.76-7.78 2.89-4.11 2.59-8.56-.87-11.94 1.43-2.05.68-3.83-.93-5.16 0 0 4.63 2.27 8.18-.98 0 0 7.45 5.36 4.34 10.17 0 0 8.23 5.56.29 11.38 0 0 1.16 8.86-9.3 10.7 0 0-2.75 3.12-6.55 3.7Z" fill="#6A107A"/><path d="M46.48 9.39c-3.55 16.6-14.48 10.94-15.96 8.02-1.48-2.92-.05-14.55 15.96-8.03Z" fill="#0F805D"/><path d="M13.62 9.39c3.56 16.6 14.48 10.94 15.96 8.02 1.49-2.92.05-14.55-15.96-8.03Z" fill="#0F805D"/><path d="M46.48 9.39c-3.55 16.6-14.48 10.94-15.96 8.02-1.48-2.92-.05-14.55 15.96-8.03v0Z" stroke="#000" stroke-width="2" stroke-miterlimit="10" stroke-linecap="round" stroke-linejoin="round"/><path d="M37.98 12.75c-2.61 1-5.95 2.6-7.43 4.7m-16.93-8.06c3.56 16.6 14.48 10.94 15.96 8.02 1.49-2.92.05-14.55-15.96-8.03v0Z" stroke="#000" stroke-width="2" stroke-miterlimit="10" stroke-linecap="round" stroke-linejoin="round"/><path d="M22.13 12.75c2.6 1 5.95 2.6 7.43 4.7m-12.93 3.83s-2.15 1.3-2.63 3.42a12.1 12.1 0 0 0 0 4.44s-3.38 1.4-3.38 5.77c0 4.37 2.85 5.6 2.85 5.6s.03 5.17 3.21 7.95a10.9 10.9 0 0 0 6.53 2.8s1.73 3.68 6.84 3.68c5.11 0 6.85-3.68 6.85-3.68s3.46-.5 6.52-2.8c3.06-2.29 2.98-7.94 2.98-7.94s3.08-1.24 3.08-5.61c0-4.38-3.37-5.77-3.37-5.77s.48-2.32 0-4.44c-.48-2.13-2.63-3.42-2.63-3.42" stroke="#000" stroke-width="2" stroke-miterlimit="10" stroke-linecap="round" stroke-linejoin="round"/><path d="M35.2 24.56s-2.18 2.3-4.87 2.3m-5.05-2.3s2.18 2.3 4.87 2.3m11.57 6.08a4.5 4.5 0 0 1-4.62 4.36m-4.8-4.36a4.5 4.5 0 0 0 4.62 4.36m-8.68-4.36a4.5 4.5 0 0 1-4.62 4.36m-4.8-4.36a4.5 4.5 0 0 0 4.62 4.36m11.48 7.59c-.87 1.15-2.63 1.94-4.67 1.94m-4.97-2.09c.83 1.24 2.66 2.1 4.77 2.1m-4.8-1.8c0 1.04-.65 1.97-1.67 2.62m11.4-2.62c0 1.13.75 2.13 1.94 2.8m-17.42-12.28a4.4 4.4 0 0 1-3.28 4.18m4.62-15.2a4.65 4.65 0 0 1-4.62 4.66m22.42-4.67a4.65 4.65 0 0 0 4.62 4.67m-2.22 6.36a4.39 4.39 0 0 0 3.04 4.1" stroke="#000" stroke-width="2" stroke-miterlimit="10" stroke-linecap="round" stroke-linejoin="round"/><path d="M78.48 45.2c-.61 0-.97-.3-1.08-.92-.13-1.01-.2-1.97-.2-2.88-.08-2.05-.15-4.19-.2-6.4-.03-2.24-.04-3.87-.04-4.88-.59.27-1.05.64-1.4 1.12a8.9 8.9 0 0 0-.92 1.76 11.2 11.2 0 0 0-.72 3.88v1l-.04 1.48c-.03.83-.1 1.73-.24 2.72a3.8 3.8 0 0 1-2 3c-.19.1-.43.16-.72.16-.35 0-.64-.08-.88-.24-.21-.19-.28-.44-.2-.76a.73.73 0 0 1 .24-.4c.1-.08.25-.16.44-.24.21-.08.37-.16.48-.24.4-.37.6-.88.6-1.52l.04-3.36c.05-1.3.12-2.3.2-3a11.81 11.81 0 0 1 1.36-4.12 9 9 0 0 1 .88-1.48 6.4 6.4 0 0 1-2.96-2.6c-.53-1.04-.8-2.56-.8-4.56 0-1.57.28-3.12.84-4.64.56-1.5 1.48-2.44 2.76-2.84l1.76-.6c.24-.1.5-.16.8-.16.56 0 1.2.24 1.92.72.45.27.68.7.68 1.32a77.59 77.59 0 0 0-.24 5.08v8.88a188.26 188.26 0 0 0 .2 9.32c.05.85.1 1.56.12 2.12l.12 2.2v.24c0 .35-.05.57-.16.68-.1.1-.32.16-.64.16Zm-1.68-29.04-.92.32c-.45.16-.85.35-1.2.56-.4.19-.77.59-1.12 1.2a8.95 8.95 0 0 0-.76 1.88 4.8 4.8 0 0 0-.24 1.52l.08 1.76c0 .83.01 1.48.04 1.96.03.75.24 1.37.64 1.88a3.4 3.4 0 0 0 1.76 1c.3.08.63.2 1 .36.4.13.7.24.88.32l-.16-12.76Zm7.64 29.16-.16-.56c-.06-.27-.07-.5-.04-.68.05-3.1.13-5.4.24-6.92a70 70 0 0 0 .04-2.48c0-1.97-.1-4.36-.28-7.16-.16-3.41-.24-6-.24-7.76 0-.4.16-.76.48-1.08.32-.32.7-.48 1.16-.48 1.52 0 2.84.12 3.96.36.53.1.88.3 1.04.56.16.24.21.65.16 1.24a2.12 2.12 0 0 1-1.76.28c-.24-.05-.88-.1-1.92-.16h-.08c-.38 0-.56.2-.56.6-.14 3.87-.2 6.07-.2 6.6a370.84 370.84 0 0 0 .2 7.64 59.72 59.72 0 0 0-.12 3.88c0 2.21.04 3.76.12 4.64-.03.59-.12.99-.28 1.2-.16.24-.46.36-.88.36l-.88-.08Zm13.77.44c-.7 0-1.33-.23-1.92-.68a4.75 4.75 0 0 1-1.44-1.76 15.87 15.87 0 0 1-1.44-5.32 39.95 39.95 0 0 1-.36-5.24c0-.32.01-.59.04-.8v-.72c0-.13-.01-.2-.04-.2v-.72l.04-2.8c.03-.85.13-2.21.32-4.08.13-1.28.44-2.52.92-3.72a3 3 0 0 1 .72-1.2c.3-.3.63-.44 1-.44a6.7 6.7 0 0 1 5.04 2.2c.53.67.99 1.5 1.36 2.48.37.96.64 1.99.8 3.08.16 1.12.24 2.3.24 3.56v.32c0 .83.01 1.57.04 2.24l.04 2.28c0 7.68-1.79 11.52-5.36 11.52Zm-.16-1.68c.48 0 .92-.19 1.32-.56.4-.4.7-.93.92-1.6.5-1.36.81-2.83.92-4.4.13-1.36.2-2.53.2-3.52 0-1.2-.1-2.77-.28-4.72a65.05 65.05 0 0 1-.24-4.6v-.72a4.29 4.29 0 0 0-1.04-2.64 2.84 2.84 0 0 0-2.28-1.12c-.9 0-1.5.52-1.8 1.56-.27.83-.4 1.9-.4 3.2 0 .5.01.93.04 1.28v1.08l-.08 1.84a19.5 19.5 0 0 0-.08 1.84c0 1.44.04 2.87.12 4.28a35 35 0 0 0 .8 5.84c.43 1.97 1.05 2.96 1.88 2.96Zm23.84 5.84c-.21.05-.37.08-.48.08-.32 0-.54-.2-.68-.6-.1-.32-.16-.72-.16-1.2l.04-2.76c0-.16-.01-.3-.04-.44l-.08-.4h-4.6c.27 0-.37.13-1.92.4-1.52.24-2.7.4-3.56.48l-1.8.16-2 .2v.88c.03.35.03.76 0 1.24v.2c0 .43-.1.75-.32.96-.21.21-.41.32-.6.32-.1 0-.26-.05-.48-.16a1.9 1.9 0 0 1-.8-1.44l-.12-2.92c-.05-1.04.38-1.56 1.28-1.56.51-.03.91-.16 1.2-.4.3-.24.64-.61 1.04-1.12.4-.53.71-1.12.92-1.76a24.74 24.74 0 0 0 1.2-5.36c.11-.96.24-2.33.4-4.12.24-2.8.36-5.61.36-8.44l-.04-2.24c0-.5.15-.92.44-1.24.3-.35.7-.52 1.2-.52.16 0 .28.01.36.04 1.23.21 2.23.35 3 .4h.2c.35 0 .55-.07.6-.2.24-.32.54-.48.88-.48.24 0 .46.05.64.16.43.16.71.56.84 1.2l-.2 6.84a623.27 623.27 0 0 0 .12 12.72l.04 2.2c0 .21.02.41.04.6l.08.56c.54.05.94.08 1.2.08.22 0 .38-.01.48-.04.59-.08 1.11.07 1.56.44.48.35.72.8.72 1.36 0 .72-.05 1.8-.16 3.24 0 .37-.02.9-.08 1.6-.05.56-.29.9-.72 1.04Zm-11.52-6.36a106 106 0 0 0 3.52-.36 16.6 16.6 0 0 0 2.6-.6c.27-3.23.4-6.68.4-10.36 0-3.41-.13-7.16-.4-11.24l-3.88-.2-.04 1.88c-.21 4.1-.36 7.17-.44 9.2a33.3 33.3 0 0 1-1.56 8.96l-.36 1.2a4.44 4.44 0 0 1-.76 1.6l.92-.08Zm22.8 1.8c-.62 0-1.07-.1-1.36-.28-.3-.19-.44-.53-.44-1.04 0-.8-.14-2.16-.4-4.08l-.16-.84-3.96-.6a47.3 47.3 0 0 0-.68 3.72c-.16 1.3-.42 2.17-.76 2.6a.95.95 0 0 1-.8.36c-.32 0-.62-.1-.88-.28a.95.95 0 0 1-.4-.76l.08-.2.04-.16a176.2 176.2 0 0 0 4-20.28 29 29 0 0 0 .12-1.64c.08-.99.16-1.77.24-2.36.1-.59.26-1.03.48-1.32h1.36c.37 0 .7.1.96.28.26.16.4.4.4.72 0 2.03.28 5.04.84 9.04.53 4.1.8 6.99.8 8.64 0 .16.06.57.2 1.24.13.61.2 1.01.2 1.2 0 .19.13.99.4 2.4.24 1.28.36 2.1.36 2.48v.04c0 .59-.22.96-.64 1.12Zm-2.64-7.68a7.7 7.7 0 0 1-.12-1.48c0-2.4-.22-5.47-.64-9.2l-.4-4.16c-1.15 6.27-1.94 11-2.36 14.2.4.27 1.57.48 3.52.64Z" fill="#0F805D"/></svg>