<svg viewBox="0 0 110 24" fill="none" xmlns="http://www.w3.org/2000/svg"><path d="M7.14 7.69v7.81h-.76v-3.65h-4.63v3.65h-.77v-7.81h.77v3.48h4.63v-3.48h.76Zm7.5.68h-2.78v7.13h-.77v-7.13h-2.78v-.68h6.33v.68Zm8.1 7.13v-6.36l-2.83 4.94h-.49l-2.84-4.94v6.36h-.77v-7.81h.8l3.04 5.35 3.07-5.35h.78v7.81h-.77Zm2.72 0v-7.81h.77v7.13h4.51v.68h-5.28Zm10.97-7.81h.65l3.25 7.81h-.82l-1.01-2.44h-3.51l-1 2.44h-.83l3.27-7.81Zm1.9 4.76-1.58-3.86-1.6 3.86h3.17Zm5.29 3.16c-.42 0-.8-.08-1.16-.23a3 3 0 0 1-1.73-2.76c0-.54.12-1.04.37-1.49a2.77 2.77 0 0 1 2.5-1.46c.54 0 1.01.12 1.42.37.41.25.72.58.92 1l-.73.23a1.7 1.7 0 0 0-.68-.69c-.29-.17-.6-.25-.96-.25-.38 0-.73.1-1.04.3-.32.2-.57.47-.76.81-.19.35-.28.74-.28 1.18a2.43 2.43 0 0 0 1.05 2.02 1.96 1.96 0 0 0 1.76.18c.23-.09.43-.2.6-.35.18-.16.3-.32.35-.5l.74.22c-.1.27-.27.52-.52.74a2.66 2.66 0 0 1-1.85.68Zm3.08-1.76c0-.36.1-.67.31-.92.2-.27.5-.47.85-.6.37-.16.79-.23 1.26-.23a6 6 0 0 1 1.68.27v-.49c0-.48-.15-.87-.43-1.15a1.6 1.6 0 0 0-1.19-.43c-.3 0-.61.06-.91.17-.3.11-.6.28-.93.5l-.28-.53c.37-.26.74-.45 1.1-.57.36-.13.72-.2 1.1-.2.7 0 1.26.2 1.67.6.41.4.61.97.61 1.68v2.65c0 .1.03.18.07.23.04.04.11.07.21.08v.59a6.35 6.35 0 0 0-.34.02.54.54 0 0 1-.42-.17.58.58 0 0 1-.15-.36l-.01-.41c-.26.33-.6.58-1 .77a3.3 3.3 0 0 1-1.26.26c-.37 0-.7-.08-1-.23-.3-.16-.52-.38-.7-.64a1.71 1.71 0 0 1-.24-.89Zm3.84.44c.08-.1.15-.2.2-.3.03-.1.06-.18.06-.25v-.84a4.55 4.55 0 0 0-1.59-.3c-.53 0-.97.11-1.3.33-.33.2-.49.5-.49.87a1.2 1.2 0 0 0 .65 1.06c.21.12.46.18.75.18.36 0 .69-.07 1-.21.31-.14.56-.32.72-.54Zm2.24-1.64a3.16 3.16 0 0 1 1.26-2.58 2.43 2.43 0 0 1 2.63-.02c.38.25.68.56.9.92v-3.5h.74v7.13c0 .1.02.18.06.23a.3.3 0 0 0 .2.08v.59c-.14.02-.26.03-.34.02a.6.6 0 0 1-.4-.18.54.54 0 0 1-.18-.39v-.56a2.5 2.5 0 0 1-.93.89 2.52 2.52 0 0 1-3.18-.57 3.2 3.2 0 0 1-.77-2.06Zm4.78.88v-1.77a2.4 2.4 0 0 0-1.98-1.43c-.3 0-.59.07-.84.2a2 2 0 0 0-.64.52 2.63 2.63 0 0 0-.4 2.49c.11.27.26.52.46.74a1.99 1.99 0 0 0 1.52.67c.2 0 .39-.04.6-.11a2.29 2.29 0 0 0 1.05-.76c.12-.18.2-.36.23-.55Zm4.92 2.08a2.82 2.82 0 0 1-2.06-.88 3.17 3.17 0 0 1-.45-3.59 2.86 2.86 0 0 1 3.97-1.06 2.96 2.96 0 0 1 1.36 2.53v.29h-4.91a2.3 2.3 0 0 0 1.1 1.86 2.08 2.08 0 0 0 2.08-.01c.34-.19.57-.44.7-.75l.65.18c-.12.27-.3.52-.54.74a2.95 2.95 0 0 1-1.9.69Zm-2.11-3.24h4.23a2.34 2.34 0 0 0-.34-1.1 1.93 1.93 0 0 0-.76-.74c-.3-.19-.65-.28-1.02-.28a2.12 2.12 0 0 0-1.78 1.02c-.2.32-.3.68-.33 1.1Zm14.61 3.13h-.74v-3.2c0-.67-.11-1.16-.32-1.48a1.07 1.07 0 0 0-.95-.47c-.43 0-.82.16-1.16.46-.34.31-.58.7-.72 1.2v3.49h-.75v-3.2c0-.68-.1-1.17-.3-1.48a1.08 1.08 0 0 0-.95-.47c-.43 0-.81.15-1.16.45-.34.3-.58.7-.72 1.2v3.5h-.75v-5.73h.68v1.3c.24-.45.55-.8.93-1.04s.8-.36 1.26-.36c.48 0 .86.14 1.16.4.29.28.47.63.53 1.07.27-.48.58-.85.95-1.1a2.23 2.23 0 0 1 2.08-.2c.23.12.4.3.54.51.14.21.24.47.3.78.06.3.1.64.1 1.01v3.36Zm1.8 1.76a4.2 4.2 0 0 0 .5 0 .45.45 0 0 0 .26-.15c.08-.1.17-.26.28-.51.12-.25.27-.62.47-1.1l-2.5-5.73h.8l2.1 4.96 1.93-4.96h.75l-2.97 7.4a1.22 1.22 0 0 1-.62.66c-.15.08-.33.12-.55.12a1 1 0 0 1-.2 0c-.07 0-.15 0-.25-.02v-.67Zm23.33-17.26h-.07l-10.04.99v17.38l10.04 5.63 9.96-5.63v-17.38l-9.89-.99Zm8.48 8.52-8.55-4.79v-.07h-.08l-.07-.07v.07l-8.48 4.86v-6.34l8.55-.84 8.63.84v6.34Zm-8.63-3.73 8.55 4.71-3.34 1.83-5.28-2.95v.98l4.39 2.46-.67.36-3.72-2.12v.99l2.82 1.62-.6.35-2.22-1.27v.99l1.41.77-1.34.78-8.47-4.72 8.47-4.78Zm-8.55 5.84 8.48 4.78v.7l-5.88-3.3v.98l5.95 3.38v.78l-5.95-3.31v.98l5.95 3.38 6.03-3.45v-3.66l2.52-1.4v7.03l-8.55 4.86-8.55-4.78v-6.97Z" fill="#000"/></svg>