<svg viewBox="0 0 32 32" fill="none" xmlns="http://www.w3.org/2000/svg"><circle cx="16" cy="16" r="15.5" stroke="#0F805D"/><g clip-path="url(#a)"><path d="M7.4 13.18c0-.5.34-.78 1.03-.82l2.64.02c.18 0 .3.07.36.22.27.74.58 1.38.91 1.91.34.54.78 1.16 1.33 1.86.04.09.12.13.23.13.08 0 .14-.03.2-.1l.04-.16.02-2.56c0-.18-.05-.3-.15-.36-.1-.06-.29-.1-.56-.13-.21-.03-.32-.14-.32-.33 0-.03 0-.06.02-.08.25-.64.96-.97 2.13-.97l1-.01c.44 0 .82.1 1.11.28.3.19.45.48.45.89v3.36c.08.05.16.07.23.07.18 0 .33-.09.46-.27 1.3-1.51 2-2.53 2.11-3.04l.04-.08c.08-.15.22-.27.4-.38.2-.11.36-.18.5-.22.05-.02.1-.03.16-.03h2.75l.18.01c.24 0 .42.1.55.28.05.06.08.13.1.2a1.27 1.27 0 0 1 .04.32v.1c-.08.4-.29.84-.63 1.3a13 13 0 0 1-1.28 1.48c-.52.54-.85.89-.98 1.06-.1.11-.16.22-.16.32 0 .08.05.17.14.27l2.6 2.72c.14.16.2.33.2.52 0 .22-.1.41-.31.56a1.5 1.5 0 0 1-.77.25l-.3.02h-2.77l-.07.01c-.26 0-.5-.1-.73-.28l-1.66-1.75a.9.9 0 0 0-.25-.19 20.54 20.54 0 0 0-.36 1.32l-.05.25a.9.9 0 0 1-.75.62l-.25.02h-1.73a4.8 4.8 0 0 1-2.94-1.13 11.75 11.75 0 0 1-2.64-2.9 26.58 26.58 0 0 1-2.18-4.16 1.01 1.01 0 0 1-.09-.42Zm10.67 3.83a1.4 1.4 0 0 1-.68-.17c-.2-.12-.3-.27-.3-.47v-3.4c0-.2-.06-.34-.18-.42-.11-.09-.32-.13-.62-.13l-1 .03c-.52 0-.9.07-1.16.22.52.21.78.54.78 1v2.61a.85.85 0 0 1-.36.62c-.21.16-.45.24-.7.24a.92.92 0 0 1-.82-.43 14.94 14.94 0 0 1-2.06-3.31l-.16-.39-2.36-.01c-.16 0-.24 0-.26.02-.02.02-.03.06-.03.13a1 1 0 0 0 .04.28l.37.83c1 2.14 2.08 3.82 3.24 5.05 1.17 1.24 2.31 1.85 3.44 1.85h1.77c.07 0 .12-.01.16-.05.04-.03.07-.1.09-.2l.03-.15.34-1.3c.1-.18.18-.3.25-.35a.7.7 0 0 1 .46-.17c.29 0 .58.15.87.43l1.51 1.6c.1.13.2.2.3.2h2.93c.36 0 .53-.08.53-.23 0-.05-.01-.1-.05-.15l-2.57-2.67a.95.95 0 0 1-.3-.67c0-.24.09-.46.28-.68.15-.2.45-.52.9-.98.44-.46.83-.9 1.16-1.29.33-.4.55-.76.65-1.09l.06-.19a.2.2 0 0 1-.02-.1.3.3 0 0 0-.02-.1h-2.78a.97.97 0 0 0-.43.26l-.1.28a14.7 14.7 0 0 1-2.33 3.15c-.25.2-.54.3-.87.3Z" fill="#0F805D"/></g><defs><clipPath id="a"><path fill="#fff" transform="translate(6.4 8.8)" d="M0 0h19.2v15.09h-19.2z"/></clipPath></defs></svg>