<svg viewBox="0 0 32 32" fill="none" xmlns="http://www.w3.org/2000/svg"><circle cx="16" cy="16" r="15.5" stroke="#0F805D"/><path d="m18.56 15.75-3.6-2.4a.3.3 0 0 0-.46.25v4.8a.3.3 0 0 0 .16.26c.04.03.09.04.14.04.06 0 .12-.02.16-.05l3.6-2.4a.3.3 0 0 0 0-.5Zm-3.46 2.09v-3.68l2.76 1.84-2.76 1.84Zm8.59-6.13a1.53 1.53 0 0 0-.91-1.02c-2.54-.98-6.6-.96-6.78-.96-.17 0-4.25-.02-6.78.96a1.53 1.53 0 0 0-.9 1.02c-.2.73-.42 2.06-.42 4.29s.22 3.56.41 4.29a1.53 1.53 0 0 0 .91 1.02c2.53.98 6.6.96 6.78.96h.05c.52 0 4.32-.03 6.73-.96a1.53 1.53 0 0 0 .9-1.02c.2-.73.42-2.06.42-4.29s-.23-3.56-.41-4.29Zm-.59 8.43a.9.9 0 0 1-.54.6c-2.43.95-6.52.93-6.56.93-.05 0-4.13.01-6.56-.92a.9.9 0 0 1-.54-.61c-.18-.7-.4-1.98-.4-4.14 0-2.16.22-3.44.4-4.14a.9.9 0 0 1 .54-.6c2.43-.95 6.51-.93 6.56-.93.04 0 4.13-.02 6.56.92a.9.9 0 0 1 .54.61c.18.7.4 1.98.4 4.14 0 2.16-.22 3.44-.4 4.14Z" fill="#0F805D"/></svg>